ffmpeg version 2.1.1 Copyright (c) 2000-2013 the FFmpeg developers
  built on Dec 20 2014 10:34:55 with gcc 4.7 (Debian 4.7.2-5)
  configuration: --enable-gpl --enable-nonfree --enable-postproc --enable-pthreads --enable-x11grab --enable-swscale --enable-version3 --enable-shared --disable-yasm --enable-filter=movie --enable-frei0r --enable-libdc1394 --enable-libfaac --enable-libmp3lame --enable-libx264 --enable-libxvid --enable-libfreetype --enable-libvorbis --enable-libgsm --enable-libopencore-amrnb --enable-libopencore-amrwb --enable-libopenjpeg --enable-librtmp --enable-libschroedinger --enable-libspeex --enable-libtheora --enable-libvpx --enable-libvo-amrwbenc --enable-libvo-aacenc --enable-libaacplus --enable-libxavs --enable-bzlib --enable-openssl --enable-gnutls --enable-openal --enable-libv4l2 --enable-libpulse --enable-libmodplug --enable-libass --enable-libcdio --enable-vdpau --enable-libbluray
  libavutil      52. 48.101 / 52. 48.101
  libavcodec     55. 39.101 / 55. 39.101
  libavformat    55. 19.104 / 55. 19.104
  libavdevice    55.  5.100 / 55.  5.100
  libavfilter     3. 90.100 /  3. 90.100
  libswscale      2.  5.101 /  2.  5.101
  libswresample   0. 17.104 /  0. 17.104
  libpostproc    52.  3.100 / 52.  3.100
Input #0, flv, from '/var/www/business-supermarket.com/web/www/temp/0455477001424636825.flv':
  Metadata:
    encoder         : Lavf55.33.100
  Duration: 00:03:33.50, start: 0.000000, bitrate: 1141 kb/s
    Stream #0:0: Video: h264 (Constrained Baseline), yuv420p, 640x360 [SAR 1:1 DAR 16:9], 1000 kb/s, 24 tbr, 1k tbn, 48 tbc
    Stream #0:1: Audio: mp3, 44100 Hz, stereo, s16p, 128 kb/s
Please use -b:a or -b:v, -b is ambiguous
Output #0, flv, to '/var/www/business-supermarket.com/web/www/upload/users/jag_1/videos/0455477001424636825.flv':
  Metadata:
    encoder         : Lavf55.19.104
    Stream #0:0: Video: flv1 (flv) ([2][0][0][0] / 0x0002), yuv420p, 512x384 [SAR 4:3 DAR 16:9], q=2-31, 1000 kb/s, 1k tbn, 30 tbc
    Stream #0:1: Audio: mp3 (libmp3lame) ([2][0][0][0] / 0x0002), 44100 Hz, stereo, s16p, 128 kb/s
Stream mapping:
  Stream #0:0 -> #0:0 (h264 -> flv)
  Stream #0:1 -> #0:1 (mp3 -> libmp3lame)
Press [q] to stop, [?] for help
frame=   69 fps=0.0 q=2.0 size=     410kB time=00:00:02.92 bitrate=1146.6kbits/s    frame=  143 fps=143 q=1.6 size=     890kB time=00:00:06.00 bitrate=1213.8kbits/s    frame=  215 fps=135 q=1.6 size=    1017kB time=00:00:08.96 bitrate= 929.2kbits/s    frame=  264 fps=126 q=2.6 size=    1619kB time=00:00:11.00 bitrate=1205.5kbits/s    frame=  321 fps=124 q=3.6 size=    2029kB time=00:00:13.36 bitrate=1243.5kbits/s    frame=  384 fps=124 q=4.4 size=    2404kB time=00:00:16.00 bitrate=1230.8kbits/s    frame=  446 fps=124 q=2.4 size=    2750kB time=00:00:18.56 bitrate=1213.4kbits/s    frame=  508 fps=124 q=2.2 size=    3110kB time=00:00:21.16 bitrate=1203.7kbits/s    frame=  570 fps=124 q=5.3 size=    3499kB time=00:00:23.73 bitrate=1207.9kbits/s    frame=  634 fps=124 q=4.7 size=    3873kB time=00:00:26.40 bitrate=1201.9kbits/s    frame=  703 fps=125 q=4.4 size=    4232kB time=00:00:29.30 bitrate=1183.3kbits/s    frame=  766 fps=125 q=21.0 size=    4675kB time=00:00:31.90 bitrate=1200.5kbits/s    frame=  821 fps=124 q=25.8 size=    5063kB time=00:00:34.20 bitrate=1212.6kbits/s    frame=  892 fps=125 q=2.0 size=    5302kB time=00:00:37.16 bitrate=1168.7kbits/s    frame=  968 fps=127 q=3.6 size=    5569kB time=00:00:40.33 bitrate=1131.0kbits/s    frame= 1024 fps=126 q=5.0 size=    5973kB time=00:00:42.66 bitrate=1146.8kbits/s    frame= 1088 fps=126 q=3.6 size=    6385kB time=00:00:45.33 bitrate=1153.8kbits/s    frame= 1151 fps=126 q=6.0 size=    6760kB time=00:00:47.96 bitrate=1154.5kbits/s    frame= 1206 fps=125 q=3.6 size=    7070kB time=00:00:50.23 bitrate=1153.0kbits/s    frame= 1278 fps=126 q=4.9 size=    7496kB time=00:00:53.23 bitrate=1153.5kbits/s    frame= 1347 fps=127 q=4.5 size=    7883kB time=00:00:56.10 bitrate=1151.1kbits/s    frame= 1418 fps=127 q=5.8 size=    8309kB time=00:00:59.06 bitrate=1152.4kbits/s    frame= 1491 fps=128 q=3.8 size=    8712kB time=00:01:02.10 bitrate=1149.2kbits/s    frame= 1561 fps=129 q=3.6 size=    9094kB time=00:01:05.03 bitrate=1145.5kbits/s    frame= 1628 fps=129 q=4.4 size=    9490kB time=00:01:07.83 bitrate=1146.1kbits/s    frame= 1679 fps=125 q=4.5 size=    9798kB time=00:01:09.96 bitrate=1147.2kbits/s    frame= 1742 fps=125 q=3.3 size=   10130kB time=00:01:12.56 bitrate=1143.5kbits/s    frame= 1805 fps=125 q=2.8 size=   10518kB time=00:01:15.20 bitrate=1145.8kbits/s    frame= 1869 fps=125 q=3.1 size=   10894kB time=00:01:17.86 bitrate=1146.1kbits/s    frame= 1896 fps=122 q=5.4 size=   11054kB time=00:01:19.00 bitrate=1146.3kbits/s    frame= 1959 fps=122 q=6.2 size=   11425kB time=00:01:21.60 bitrate=1147.0kbits/s    frame= 2022 fps=122 q=3.3 size=   11823kB time=00:01:24.23 bitrate=1149.9kbits/s    frame= 2091 fps=122 q=2.7 size=   12165kB time=00:01:27.10 bitrate=1144.2kbits/s    frame= 2165 fps=123 q=4.2 size=   12550kB time=00:01:30.20 bitrate=1139.8kbits/s    frame= 2229 fps=123 q=3.3 size=   12948kB time=00:01:32.86 bitrate=1142.2kbits/s    frame= 2302 fps=124 q=2.7 size=   13290kB time=00:01:35.90 bitrate=1135.3kbits/s    frame= 2376 fps=124 q=3.2 size=   13729kB time=00:01:39.00 bitrate=1136.0kbits/s    frame= 2450 fps=125 q=2.0 size=   14087kB time=00:01:42.06 bitrate=1130.6kbits/s    frame= 2529 fps=126 q=2.0 size=   14440kB time=00:01:45.36 bitrate=1122.7kbits/s    frame= 2611 fps=127 q=2.0 size=   14800kB time=00:01:48.80 bitrate=1114.3kbits/s    frame= 2683 fps=127 q=2.0 size=   15101kB time=00:01:51.80 bitrate=1106.5kbits/s    frame= 2745 fps=127 q=2.0 size=   15568kB time=00:01:54.36 bitrate=1115.1kbits/s    frame= 2808 fps=127 q=3.3 size=   16187kB time=00:01:57.00 bitrate=1133.4kbits/s    frame= 2871 fps=127 q=2.8 size=   16680kB time=00:01:59.60 bitrate=1142.5kbits/s    frame= 2913 fps=121 q=2.2 size=   16995kB time=00:02:01.36 bitrate=1147.1kbits/s    frame= 2913 fps=118 q=2.2 size=   16997kB time=00:02:01.36 bitrate=1147.3kbits/s    frame= 2982 fps=119 q=2.3 size=   17376kB time=00:02:04.23 bitrate=1145.8kbits/s    frame= 3048 fps=119 q=11.1 size=   17815kB time=00:02:07.00 bitrate=1149.1kbits/s    frame= 3117 fps=119 q=6.4 size=   18183kB time=00:02:09.86 bitrate=1147.0kbits/s    frame= 3181 fps=119 q=2.4 size=   18513kB time=00:02:12.53 bitrate=1144.3kbits/s    frame= 3252 fps=120 q=5.8 size=   18945kB time=00:02:15.50 bitrate=1145.4kbits/s    frame= 3324 fps=120 q=4.2 size=   19369kB time=00:02:18.50 bitrate=1145.6kbits/s    frame= 3393 fps=120 q=4.9 size=   19698kB time=00:02:21.36 bitrate=1141.4kbits/s    frame= 3463 fps=121 q=2.6 size=   20075kB time=00:02:24.30 bitrate=1139.7kbits/s    frame= 3529 fps=121 q=6.1 size=   20591kB time=00:02:27.03 bitrate=1147.3kbits/s    frame= 3592 fps=121 q=6.8 size=   20965kB time=00:02:29.66 bitrate=1147.5kbits/s    frame= 3654 fps=121 q=8.2 size=   21325kB time=00:02:32.23 bitrate=1147.5kbits/s    frame= 3718 fps=121 q=3.4 size=   21648kB time=00:02:34.90 bitrate=1144.9kbits/s    frame= 3783 fps=121 q=7.8 size=   22001kB time=00:02:37.60 bitrate=1143.6kbits/s    frame= 3844 fps=121 q=8.5 size=   22389kB time=00:02:40.16 bitrate=1145.1kbits/s    frame= 3905 fps=121 q=5.2 size=   22737kB time=00:02:42.70 bitrate=1144.8kbits/s    frame= 3965 fps=121 q=4.6 size=   23043kB time=00:02:45.20 bitrate=1142.6kbits/s    frame= 4029 fps=121 q=4.2 size=   23381kB time=00:02:47.86 bitrate=1141.0kbits/s    frame= 4091 fps=121 q=4.4 size=   23756kB time=00:02:50.46 bitrate=1141.6kbits/s    frame= 4162 fps=122 q=4.2 size=   24116kB time=00:02:53.40 bitrate=1139.3kbits/s    frame= 4230 fps=122 q=3.2 size=   24555kB time=00:02:56.23 bitrate=1141.4kbits/s    frame= 4301 fps=122 q=5.4 size=   25000kB time=00:02:59.20 bitrate=1142.8kbits/s    frame= 4373 fps=123 q=4.7 size=   25387kB time=00:03:02.20 bitrate=1141.4kbits/s    frame= 4428 fps=122 q=2.3 size=   25705kB time=00:03:04.50 bitrate=1141.3kbits/s    frame= 4483 fps=122 q=9.3 size=   26027kB time=00:03:06.80 bitrate=1141.4kbits/s    frame= 4562 fps=123 q=2.0 size=   26329kB time=00:03:10.06 bitrate=1134.8kbits/s    frame= 4638 fps=123 q=2.0 size=   26714kB time=00:03:13.23 bitrate=1132.5kbits/s    frame= 4722 fps=124 q=2.0 size=   26938kB time=00:03:16.73 bitrate=1121.7kbits/s    frame= 4800 fps=124 q=2.0 size=   27406kB time=00:03:20.00 bitrate=1122.5kbits/s    frame= 4874 fps=124 q=3.3 size=   27927kB time=00:03:23.06 bitrate=1126.6kbits/s    frame= 4950 fps=125 q=2.0 size=   28328kB time=00:03:26.23 bitrate=1125.3kbits/s    frame= 5031 fps=125 q=2.0 size=   28872kB time=00:03:29.60 bitrate=1128.5kbits/s    frame= 5120 fps=126 q=2.0 size=   29201kB time=00:03:33.36 bitrate=1121.1kbits/s    frame= 5124 fps=126 q=2.0 Lsize=   29204kB time=00:03:33.50 bitrate=1120.6kbits/s    
video:25660kB audio:3336kB subtitle:0 global headers:0kB muxing overhead 0.717666%
